<?xml version="1.0" encoding="utf-8"?>
<!-- Generator: Adobe Illustrator 25.2.1, SVG Export Plug-In . SVG Version: 6.00 Build 0)  -->
<svg version="1.1" id="Layer_1" xmlns="http://www.w3.org/2000/svg" xmlns:xlink="http://www.w3.org/1999/xlink" x="0px" y="0px"
	 width="180px" height="40px" viewBox="0 0 180 40" style="enable-background:new 0 0 180 40;" xml:space="preserve">
<style type="text/css">
	.st0{fill:#231F20;}
	.st1{fill:url(#SVGID_1_);}
</style>
<g>
	<path class="st0" d="M57.2,13h-5.8v18.3h-4.5V13h-5.8V8.7h16.1V13z"/>
	<path class="st0" d="M65.9,14.4v4.4c-3.1,0-4.9,1.8-4.9,4.6v7.9h-4.2V14.6H61v2.4C62.2,15.4,63.9,14.4,65.9,14.4z"/>
	<path class="st0" d="M66.6,9.5c0-1.5,1.2-2.7,2.6-2.7c1.5,0,2.7,1.2,2.7,2.6s-1.2,2.7-2.6,2.7c0,0,0,0,0,0
		C67.8,12.2,66.6,11.1,66.6,9.5C66.6,9.6,66.6,9.6,66.6,9.5z M67.2,14.6h4.2v16.6h-4.2V14.6z"/>
	<path class="st0" d="M92.2,22.9c0,5-3.6,8.7-8.3,8.7c-2.6,0-5.1-1.3-6.5-3.6v3.2h-2.8V7.8h2.8v10c1.4-2.2,3.8-3.6,6.5-3.6
		C88.6,14.2,92.2,18,92.2,22.9z M89.3,22.9c0-3.4-2.5-6-6-6s-5.9,2.6-5.9,6s2.5,6,5.9,6S89.3,26.4,89.3,22.9z"/>
	<path class="st0" d="M111.4,14.6v16.6h-2.8v-3.2c-1.4,2.2-3.8,3.6-6.5,3.6c-4.8,0-8.3-3.8-8.3-8.7s3.6-8.7,8.3-8.7
		c2.6,0,5.1,1.3,6.5,3.6v-3.2H111.4z M108.6,22.9c0-3.4-2.5-6-5.9-6s-6,2.6-6,6s2.5,6,6,6S108.6,26.4,108.6,22.9L108.6,22.9z"/>
	<path class="st0" d="M114.1,26.5h2.9c0,1.5,1.2,2.6,2.7,2.6c0,0,0,0,0,0c1.5,0,2.6-1,2.6-2.2c0-1.5-1.2-2.3-3.3-2.8
		c-2.5-0.7-4.8-2-4.8-5c0-3,2.4-4.8,5.4-4.8c3.1,0,5.4,2.2,5.4,4.9h-2.9c0-1.3-1.1-2.4-2.4-2.4c0,0-0.1,0-0.1,0
		c-1.4,0-2.4,0.9-2.4,2.1c0,1.4,1.2,2.3,3.3,2.8c2.9,0.8,4.8,2.2,4.8,5c0,3.1-2.4,5-5.6,5C116.5,31.6,114.1,29.4,114.1,26.5z"/>
	<path class="st0" d="M136.7,17.2h-3.8v14.1H130V17.2h-3.6v-2.5h3.6v-4.3l2.8-0.6v4.9h3.8L136.7,17.2z"/>
	<path class="st0" d="M138,9.4c0-1,0.8-1.9,1.9-1.9c1,0,1.9,0.8,1.9,1.9c0,1-0.8,1.9-1.8,1.9C138.9,11.3,138,10.5,138,9.4
		C138,9.5,138,9.5,138,9.4z M138.5,14.6h2.8v16.6h-2.8V14.6z"/>
	<path class="st0" d="M143.8,22.9c0-5,3.8-8.7,8.9-8.7c5.1,0,8.8,3.7,8.8,8.7s-3.8,8.7-8.8,8.7C147.6,31.7,143.8,27.9,143.8,22.9z
		 M158.6,22.9c0-3.4-2.5-6-5.9-6c-3.4,0-6,2.6-6,6s2.5,6,6,6S158.6,26.4,158.6,22.9z"/>
	<path class="st0" d="M179.7,21v10.3h-2.8v-9.4c0-3-1.9-4.9-4.9-4.9c-3.1,0-5.1,2-5.1,5v9.3h-2.8V14.6h2.8v2.7c1.3-2,3.4-3.1,6-3.1
		C176.9,14.2,179.7,16.9,179.7,21z"/>
	
		<linearGradient id="SVGID_1_" gradientUnits="userSpaceOnUse" x1="32.2055" y1="-5.8247" x2="11.2949" y2="31.028" gradientTransform="matrix(1 0 0 -1 0 40)">
		<stop  offset="0" style="stop-color:#EC008C"/>
		<stop  offset="1" style="stop-color:#A3238E"/>
	</linearGradient>
	<path class="st1" d="M24.9,1.5v1.9l2.2,0.6h-8.3V0h-6.1v4.1H4.3l2.2-0.6V1.5H0.3v30.4L15.7,40L31,31.9V1.5H24.9z M2.8,23.9L9.6,20
		l-5.3-3l1.1-5.3l7.8,4.5l0,0l4.3,2.5l2.3,1.3l-4.3,2.5l-2.3,1.3l0,0l-6.3,3.7L2.8,23.9z M25,28.9L18.3,25v6.1l-5.1,1.7v-7.3
		l7.6-4.9l5.3,3.1L25,28.9z M20.7,19.4l-7.6-4.9V8.9l5.1-1.7V15l5.3-3l4,3.6L20.7,19.4z"/>
</g>
</svg>
